<?xml version="1.0" encoding="UTF-8"?><svg id="Layer_1" xmlns="http://www.w3.org/2000/svg" viewBox="0 0 203.08 201.07"><defs><style>.cls-1{stroke-width:3px;}.cls-1,.cls-2{fill:none;stroke:#fff;stroke-miterlimit:10;}.cls-2{stroke-linecap:round;stroke-width:20px;}</style></defs><path class="cls-2" d="M74.52,107.65l26.92,28.02c8.77,8.12,20.5,13.09,33.4,13.09,27.15,0,49.16-22.01,49.16-49.16s-22.01-49.16-49.16-49.16c-11.35,0-21.81,3.85-30.13,10.31"/><path class="cls-2" d="M109.89,99.08l-14.48-14.48c-4.66-4.66-9.06-9.6-14.97-12.72s-12.93-4.9-19.82-4.9c-23.45,0-42.45,19.01-42.45,42.45,0,14.25,7.36,27.8,19.29,35.58,6.86,4.48,14.97,6.87,23.16,6.87l16.34-.08"/><path class="cls-1" d="M137.16,32.76c-18.88-.78-36.1,6.25-48.74,18.11-2.97,2.79-7.22,3.75-11.13,2.58-6.17-1.86-12.77-2.72-19.62-2.41C27.53,52.42,3.09,76.89,1.76,107.02c-1.48,33.63,25.34,61.35,58.64,61.35,13.85,0,60.1-1.51,73.9-1.51,37.6,0,67.98-30.94,67.06-68.75-.85-35.1-29.12-63.89-64.2-65.35Z"/></svg>