<?xml version="1.0" encoding="UTF-8"?><svg id="Layer_1" xmlns="http://www.w3.org/2000/svg" viewBox="0 0 203.08 201.07"><defs><style>.cls-1{fill:#fff;}.cls-2{fill:none;stroke:#fff;stroke-linecap:round;stroke-linejoin:round;stroke-width:17px;}</style></defs><path class="cls-1" d="M151.22,68.45v64.18H71.57V68.45h79.65m9.89-13H61.68c-1.71,0-3.11,1.55-3.11,3.47v83.24c0,1.91,1.39,3.47,3.11,3.47h99.44c1.71,0,3.11-1.55,3.11-3.47V58.91c0-1.91-1.39-3.47-3.11-3.47h0Z"/><path class="cls-1" d="M32.33,142.44h7.5c2.07,0,3.75-1.71,3.75-3.81s-1.68-3.81-3.75-3.81h-7.5c-2.07,0-3.75,1.71-3.75,3.81s1.68,3.81,3.75,3.81Z"/><path class="cls-1" d="M32.33,127.2h7.5c2.07,0,3.75-1.71,3.75-3.81s-1.68-3.81-3.75-3.81h-7.5c-2.07,0-3.75,1.71-3.75,3.81s1.68,3.81,3.75,3.81Z"/><ellipse class="cls-1" cx="36.08" cy="100.54" rx="7.5" ry="7.62"/><path class="cls-1" d="M32.33,81.49h7.5c2.07,0,3.75-1.71,3.75-3.81s-1.68-3.81-3.75-3.81h-7.5c-2.07,0-3.75,1.71-3.75,3.81s1.68,3.81,3.75,3.81Z"/><path class="cls-1" d="M32.33,66.25h7.5c2.07,0,3.75-1.71,3.75-3.81s-1.68-3.81-3.75-3.81h-7.5c-2.07,0-3.75,1.71-3.75,3.81s1.68,3.81,3.75,3.81Z"/><path class="cls-2" d="M192.75,37.87c0-2.37-.84-4.65-2.32-6.33s-3.51-2.62-5.61-2.62H18.26c-2.1,0-4.12,.95-5.61,2.62s-2.32,3.96-2.32,6.33v125.32c0,2.37,.84,4.65,2.32,6.33,1.49,1.68,3.51,2.62,5.61,2.62H184.82c2.1,0,4.12-.95,5.61-2.62,1.49-1.68,2.32-3.96,2.32-6.33V37.87Z"/></svg>