<?xml version="1.0" encoding="UTF-8"?><svg id="Layer_1" xmlns="http://www.w3.org/2000/svg" viewBox="0 0 203.08 201.07"><defs><style>.cls-1{fill:#fff;}</style></defs><path class="cls-1" d="M138.19,1.51c3.47,.57,6.87,1.46,10.13,2.84,12.28,5.19,21.25,17.48,22.45,30.75,1.2,13.28-5.42,26.98-16.57,34.29,11.38,7.7,17.92,22.01,16.3,35.65-1.62,13.65-11.32,26.02-24.19,30.85s-28.31,1.89-38.51-7.32c-1.71,16.83,2.73,34.74-4.12,50.21-5.83,13.17-19.97,22.2-34.37,21.95-15.73-.28-31.06-11.97-35.47-27.11-4.38-15.01,1.85-32.76,14.83-41.53-10.14-6.86-16.57-18.92-16.6-31.16-.04-12.25,6.31-24.34,16.41-31.26-10.63-7.87-16.98-21.34-15.86-34.52,1.12-13.18,9.86-25.53,22.07-30.62,8.36-3.48,17.67-3.6,26.73-3.68l37.15-.31c6.53-.05,13.2-.08,19.62,.97Zm-42.73,99.31c0-7.4-.07-14.81,.04-22.21,.04-2.27-.57-3.11-2.97-3.07-8.14,.14-16.28-.14-24.42,.11-13.14,.4-23.84,11.73-23.9,24.95-.05,13.52,10.61,24.98,23.91,25.38,8.13,.25,16.28-.03,24.42,.11,2.42,.04,3-.83,2.96-3.08-.11-7.4-.04-14.8-.04-22.21Zm0-62.42c0-7.25-.11-14.5,.06-21.74,.06-2.63-.52-3.64-3.38-3.56-7.53,.2-15.08-.02-22.62,.09-14.25,.22-25.24,11.03-25.31,24.77-.07,14.13,10.75,25.2,25.11,25.51,7.54,.16,15.09-.15,22.62,.11,3.22,.11,3.62-1.21,3.56-3.88-.14-7.1-.05-14.2-.05-21.3Zm11.96-.21c0,7.25,.09,14.5-.05,21.74-.05,2.54,.44,3.71,3.35,3.64,7.68-.2,15.38,.09,23.06-.1,14.11-.36,24.9-11.42,24.88-25.28-.01-13.79-10.93-24.73-25.1-24.98-7.54-.13-15.08,.14-22.62-.11-3.1-.1-3.65,1.05-3.59,3.8,.17,7.1,.06,14.2,.06,21.3Zm-11.96,115.27c0-4.63-.12-8.47,.04-12.31,.1-2.33-.7-3.08-3.02-3.04-7.97,.12-15.96-.18-23.92,.11-13.31,.49-24,11.19-24.34,23.98-.35,13.11,9.22,24.67,21.61,26.1,14.22,1.63,26.39-7.1,29.04-20.62,.98-5.01,.27-10.01,.59-14.22Zm63.2-52.35c.08-14.09-11.08-25.4-25.17-25.5-14.39-.11-26.03,11.13-26.07,25.16-.04,13.82,11.49,25.25,25.51,25.28,14.26,.03,25.65-11.01,25.73-24.94Z"/></svg>