<?xml version="1.0" encoding="UTF-8"?><svg id="Layer_1" xmlns="http://www.w3.org/2000/svg" viewBox="0 0 203.08 201.07"><defs><style>.cls-1{fill:#fff;}</style></defs><path class="cls-1" d="M41.28,55L3.21,93.06c-4.09,4.09-4.09,10.71,0,14.8l38.06,38.06c4.09,4.09,10.71,4.09,14.8,0h0c4.09-4.09,4.09-10.71,0-14.8l-27.72-27.72c-1.62-1.62-1.62-4.26,0-5.88l27.72-27.72c4.09-4.09,4.09-10.71,0-14.8h0c-4.09-4.09-10.71-4.09-14.8,0Z"/><path class="cls-1" d="M147.01,55h0c-4.09,4.09-4.09,10.71,0,14.8l27.72,27.72c1.62,1.62,1.62,4.26,0,5.88l-27.72,27.72c-4.09,4.09-4.09,10.71,0,14.8h0c4.09,4.09,10.71,4.09,14.8,0l38.06-38.06c4.09-4.09,4.09-10.71,0-14.8l-38.06-38.06c-4.09-4.09-10.71-4.09-14.8,0Z"/><path class="cls-1" d="M80.27,171.27h0c-5.58-1.72-8.71-7.63-7-13.21L110.59,36.79c1.72-5.58,7.63-8.71,13.21-7h0c5.58,1.72,8.71,7.63,7,13.21l-37.31,121.27c-1.72,5.58-7.63,8.71-13.21,7Z"/></svg>